<mxfile host="65bd71144e">
    <diagram name="Page-1" id="c9db0220-8083-56f3-ca83-edcdcd058819">
        <mxGraphModel dx="2307" dy="795" grid="1" gridSize="10" guides="1" tooltips="1" connect="1" arrows="1" fold="1" page="1" pageScale="1.5" pageWidth="826" pageHeight="1169" background="none" math="0" shadow="0">
            <root>
                <mxCell id="0" style=";html=1;"/>
                <mxCell id="1" style=";html=1;" parent="0"/>
                <mxCell id="XdTm76C0t2Q1DLyjEuXM-4" value="" style="rounded=1;whiteSpace=wrap;html=1;strokeColor=none;fillColor=#E6E6E6;" parent="1" vertex="1">
                    <mxGeometry x="30" y="209" width="340" height="20" as="geometry"/>
                </mxCell>
                <mxCell id="3d76a8aef4d5c911-18" value="filepath&amp;nbsp;" style="html=1;shadow=0;dashed=0;shape=mxgraph.bootstrap.rrect;rSize=5;strokeColor=#dddddd;;align=left;spacingLeft=10;fontSize=16;whiteSpace=wrap;rounded=0;" parent="1" vertex="1">
                    <mxGeometry x="530" y="150" width="310" height="40" as="geometry"/>
                </mxCell>
                <mxCell id="3d76a8aef4d5c911-19" value="Subject" style="html=1;shadow=0;dashed=0;shape=mxgraph.bootstrap.rect;strokeColor=none;fillColor=none;fontColor=#999999;align=left;spacingLeft=5;whiteSpace=wrap;rounded=0;" parent="1" vertex="1">
                    <mxGeometry x="80" y="250" width="200" height="20" as="geometry"/>
                </mxCell>
                <mxCell id="3d76a8aef4d5c911-21" value="Insert System Variable" style="html=1;shadow=0;dashed=0;shape=mxgraph.bootstrap.rect;strokeColor=none;fillColor=none;align=right;fontSize=10;whiteSpace=wrap;rounded=0;" parent="1" vertex="1">
                    <mxGeometry x="690" y="210" width="120" height="20" as="geometry"/>
                </mxCell>
                <mxCell id="3d76a8aef4d5c911-22" value="" style="shape=triangle;strokeColor=none;fillColor=#000000;direction=south;rounded=0;shadow=1;fontSize=12;fontColor=#000000;align=center;html=1;" parent="1" vertex="1">
                    <mxGeometry x="812" y="217" width="8" height="4" as="geometry"/>
                </mxCell>
                <mxCell id="3d76a8aef4d5c911-23" value="Message" style="html=1;shadow=0;dashed=0;shape=mxgraph.bootstrap.rect;strokeColor=none;fillColor=none;fontColor=#999999;align=left;spacingLeft=5;whiteSpace=wrap;rounded=0;" parent="1" vertex="1">
                    <mxGeometry x="40" y="290" width="200" height="20" as="geometry"/>
                </mxCell>
                <mxCell id="3d76a8aef4d5c911-24" value="Hello %USER_FULL_NAME%!&#xa;&#xa;At vero eos et accusamus et iusto odio dignissimos ducimus, qui blanditiis praesentium voluptatum deleniti atque corrupti, quosdolores et quas molestias excepturi sint, obcaecati cupiditate non provident, similique sunt in culpa, qui officia deserunt mollitiaanimi, id est laborum et dolorum fuga. Et harum quidem rerum facilis est et expedita distinctio. Nam libero tempore, cum solutanobis est eligendi optio, cumque nihil impedit, quo minus id, quod maxime placeat, facere possimus, omnis voluptas assumendaest, omnis dolor repellendus." style="html=1;shadow=0;dashed=0;shape=mxgraph.bootstrap.rrect;rSize=5;fontSize=12;strokeColor=#dddddd;align=left;spacing=10;verticalAlign=top;whiteSpace=wrap;rounded=0;" parent="1" vertex="1">
                    <mxGeometry x="40" y="310" width="800" height="240" as="geometry"/>
                </mxCell>
                <mxCell id="3d76a8aef4d5c911-25" value="Insert System Variable" style="html=1;shadow=0;dashed=0;shape=mxgraph.bootstrap.rect;strokeColor=none;fillColor=none;align=right;fontSize=10;whiteSpace=wrap;rounded=0;" parent="1" vertex="1">
                    <mxGeometry x="690" y="290" width="120" height="20" as="geometry"/>
                </mxCell>
                <mxCell id="3d76a8aef4d5c911-26" value="" style="shape=triangle;strokeColor=none;fillColor=#000000;direction=south;rounded=0;shadow=1;fontSize=12;fontColor=#000000;align=center;html=1;" parent="1" vertex="1">
                    <mxGeometry x="812" y="297" width="8" height="4" as="geometry"/>
                </mxCell>
                <mxCell id="3d76a8aef4d5c911-27" value="%USER_FULL_NAME%&#xa;%USER_EMAIL%&#xa;%USER_PROFILE_COMPLETENESS%&#xa;%USER_NUM_SUCCESS_TRADES%&#xa;%USER_FULL_NAME%&#xa;%USER_EMAIL%&#xa;%USER_PROFILE_COMPLETENESS%&#xa;%USER_NUM_SUCCESS_SELLS%" style="html=1;shadow=0;dashed=0;shape=mxgraph.bootstrap.rrect;fontSize=12;rSize=2;strokeColor=#dddddd;align=left;verticalAlign=top;spacing=10;shadow=1;whiteSpace=wrap;rounded=0;" parent="1" vertex="1">
                    <mxGeometry x="590" y="305" width="240" height="140" as="geometry"/>
                </mxCell>
                <mxCell id="3d76a8aef4d5c911-28" value="Message Type" style="html=1;shadow=0;dashed=0;shape=mxgraph.bootstrap.rect;strokeColor=none;fillColor=none;fontColor=#999999;align=left;spacingLeft=5;whiteSpace=wrap;rounded=0;" parent="1" vertex="1">
                    <mxGeometry x="40" y="570" width="200" height="20" as="geometry"/>
                </mxCell>
                <mxCell id="3d76a8aef4d5c911-29" value="Email + Push" style="html=1;shadow=0;dashed=0;shape=mxgraph.bootstrap.rrect;rSize=5;strokeColor=#dddddd;align=left;spacingLeft=10;fontSize=16;whiteSpace=wrap;rounded=0;" parent="1" vertex="1">
                    <mxGeometry x="40" y="590" width="390" height="40" as="geometry"/>
                </mxCell>
                <mxCell id="3d76a8aef4d5c911-30" value="" style="shape=triangle;strokeColor=none;fillColor=#000000;direction=south;rounded=0;shadow=1;fontSize=12;fontColor=#000000;align=center;html=1;" parent="1" vertex="1">
                    <mxGeometry x="410" y="607" width="10" height="5" as="geometry"/>
                </mxCell>
                <mxCell id="3d76a8aef4d5c911-31" value="Tap target" style="html=1;shadow=0;dashed=0;shape=mxgraph.bootstrap.rect;strokeColor=none;fillColor=none;fontColor=#999999;align=left;spacingLeft=5;whiteSpace=wrap;rounded=0;" parent="1" vertex="1">
                    <mxGeometry x="450" y="570" width="200" height="20" as="geometry"/>
                </mxCell>
                <mxCell id="3d76a8aef4d5c911-32" value="Profile Screen" style="html=1;shadow=0;dashed=0;shape=mxgraph.bootstrap.rrect;rSize=5;strokeColor=#dddddd;align=left;spacingLeft=10;fontSize=16;whiteSpace=wrap;rounded=0;" parent="1" vertex="1">
                    <mxGeometry x="450" y="590" width="390" height="40" as="geometry"/>
                </mxCell>
                <mxCell id="3d76a8aef4d5c911-33" value="" style="shape=triangle;strokeColor=none;fillColor=#000000;direction=south;rounded=0;shadow=1;fontSize=12;fontColor=#000000;align=center;html=1;" parent="1" vertex="1">
                    <mxGeometry x="820" y="607" width="10" height="5" as="geometry"/>
                </mxCell>
                <mxCell id="3d76a8aef4d5c911-34" value="Send to Group" style="html=1;shadow=0;dashed=0;shape=mxgraph.bootstrap.rect;strokeColor=none;fillColor=none;fontColor=#999999;align=left;spacingLeft=5;whiteSpace=wrap;rounded=0;" parent="1" vertex="1">
                    <mxGeometry x="40" y="650" width="200" height="20" as="geometry"/>
                </mxCell>
                <mxCell id="3d76a8aef4d5c911-35" value="Top Management" style="html=1;shadow=0;dashed=0;shape=mxgraph.bootstrap.checkbox;fontSize=12;strokeColor=#999999;align=left;labelPosition=right;spacingLeft=5;rounded=0;" parent="1" vertex="1">
                    <mxGeometry x="50" y="673" width="14" height="14" as="geometry"/>
                </mxCell>
                <mxCell id="3d76a8aef4d5c911-36" value="Marketing Department" style="html=1;shadow=0;dashed=0;shape=mxgraph.bootstrap.rrect;fontSize=12;rSize=3;strokeColor=#999999;align=left;labelPosition=right;spacingLeft=5;rounded=0;" parent="1" vertex="1">
                    <mxGeometry x="50" y="693" width="14" height="14" as="geometry"/>
                </mxCell>
                <mxCell id="3d76a8aef4d5c911-37" value="Design Department" style="html=1;shadow=0;dashed=0;shape=mxgraph.bootstrap.checkbox;fontSize=12;strokeColor=#999999;align=left;labelPosition=right;spacingLeft=5;rounded=0;" parent="1" vertex="1">
                    <mxGeometry x="50" y="713" width="14" height="14" as="geometry"/>
                </mxCell>
                <mxCell id="3d76a8aef4d5c911-38" value="Financial Department" style="html=1;shadow=0;dashed=0;shape=mxgraph.bootstrap.rrect;fontSize=12;rSize=3;strokeColor=#999999;align=left;labelPosition=right;spacingLeft=5;rounded=0;" parent="1" vertex="1">
                    <mxGeometry x="50" y="733" width="14" height="14" as="geometry"/>
                </mxCell>
                <mxCell id="3d76a8aef4d5c911-39" value="Supply Department" style="html=1;shadow=0;dashed=0;shape=mxgraph.bootstrap.rrect;fontSize=12;rSize=3;strokeColor=#999999;align=left;labelPosition=right;spacingLeft=5;rounded=0;" parent="1" vertex="1">
                    <mxGeometry x="50" y="753" width="14" height="14" as="geometry"/>
                </mxCell>
                <mxCell id="3d76a8aef4d5c911-40" value="Set Type" style="html=1;shadow=0;dashed=0;shape=mxgraph.bootstrap.rect;strokeColor=none;fillColor=none;fontColor=#999999;align=left;spacingLeft=5;whiteSpace=wrap;rounded=0;" parent="1" vertex="1">
                    <mxGeometry x="450" y="650" width="200" height="20" as="geometry"/>
                </mxCell>
                <mxCell id="3d76a8aef4d5c911-41" value="" style="shape=ellipse;dashed=0;strokeColor=#999999;fillColor=#ffffff;html=1;rounded=0;shadow=1;fontSize=12;fontColor=#000000;align=center;" parent="1" vertex="1">
                    <mxGeometry x="460" y="673" width="14" height="14" as="geometry"/>
                </mxCell>
                <mxCell id="3d76a8aef4d5c911-42" value="News" style="html=1;shadow=0;dashed=0;shape=mxgraph.bootstrap.rrect;align=center;rSize=3;strokeColor=none;fillColor=#58B957;fontColor=#ffffff;fontStyle=1;fontSize=10;whiteSpace=wrap;rounded=0;" parent="1" vertex="1">
                    <mxGeometry x="480" y="673" width="40" height="14" as="geometry"/>
                </mxCell>
                <mxCell id="3d76a8aef4d5c911-43" value="" style="html=1;shadow=0;dashed=0;shape=mxgraph.bootstrap.radioButton;strokeColor=#999999;fillColor=#ffffff;rounded=0;fontSize=12;fontColor=#000000;align=center;" parent="1" vertex="1">
                    <mxGeometry x="460" y="693" width="14" height="14" as="geometry"/>
                </mxCell>
                <mxCell id="3d76a8aef4d5c911-44" value="Reports" style="html=1;shadow=0;dashed=0;shape=mxgraph.bootstrap.rrect;align=center;rSize=3;strokeColor=none;fillColor=#55BFE0;fontColor=#ffffff;fontStyle=1;fontSize=10;whiteSpace=wrap;rounded=0;" parent="1" vertex="1">
                    <mxGeometry x="480" y="693" width="50" height="14" as="geometry"/>
                </mxCell>
                <mxCell id="3d76a8aef4d5c911-45" value="" style="shape=ellipse;dashed=0;strokeColor=#999999;fillColor=#ffffff;html=1;rounded=0;shadow=1;fontSize=12;fontColor=#000000;align=center;" parent="1" vertex="1">
                    <mxGeometry x="460" y="713" width="14" height="14" as="geometry"/>
                </mxCell>
                <mxCell id="3d76a8aef4d5c911-46" value="Documents" style="html=1;shadow=0;dashed=0;shape=mxgraph.bootstrap.rrect;align=center;rSize=3;strokeColor=none;fillColor=#EFAC43;fontColor=#ffffff;fontStyle=1;fontSize=10;whiteSpace=wrap;rounded=0;" parent="1" vertex="1">
                    <mxGeometry x="480" y="713" width="70" height="14" as="geometry"/>
                </mxCell>
                <mxCell id="3d76a8aef4d5c911-47" value="" style="shape=ellipse;dashed=0;strokeColor=#999999;fillColor=#ffffff;html=1;rounded=0;shadow=1;fontSize=12;fontColor=#000000;align=center;" parent="1" vertex="1">
                    <mxGeometry x="460" y="733" width="14" height="14" as="geometry"/>
                </mxCell>
                <mxCell id="3d76a8aef4d5c911-48" value="Media" style="html=1;shadow=0;dashed=0;shape=mxgraph.bootstrap.rrect;align=center;rSize=3;strokeColor=none;fillColor=#3D8BCD;fontColor=#ffffff;fontStyle=1;fontSize=10;whiteSpace=wrap;rounded=0;" parent="1" vertex="1">
                    <mxGeometry x="480" y="733" width="40" height="14" as="geometry"/>
                </mxCell>
                <mxCell id="3d76a8aef4d5c911-49" value="" style="shape=ellipse;dashed=0;strokeColor=#999999;fillColor=#ffffff;html=1;rounded=0;shadow=1;fontSize=12;fontColor=#000000;align=center;" parent="1" vertex="1">
                    <mxGeometry x="460" y="753" width="14" height="14" as="geometry"/>
                </mxCell>
                <mxCell id="3d76a8aef4d5c911-50" value="Text" style="html=1;shadow=0;dashed=0;shape=mxgraph.bootstrap.rrect;align=center;rSize=3;strokeColor=none;fillColor=#999999;fontColor=#ffffff;fontStyle=1;fontSize=10;whiteSpace=wrap;rounded=0;" parent="1" vertex="1">
                    <mxGeometry x="480" y="753" width="30" height="14" as="geometry"/>
                </mxCell>
                <mxCell id="3d76a8aef4d5c911-51" value="Save Template" style="html=1;shadow=0;dashed=0;shape=mxgraph.bootstrap.rrect;align=center;rSize=5;strokeColor=none;fillColor=#3D8BCD;fontColor=#ffffff;fontSize=16;whiteSpace=wrap;rounded=0;" parent="1" vertex="1">
                    <mxGeometry x="40" y="810" width="150" height="40" as="geometry"/>
                </mxCell>
                <mxCell id="3d76a8aef4d5c911-52" value="Cancel" style="html=1;shadow=0;dashed=0;shape=mxgraph.bootstrap.rrect;align=center;rSize=5;strokeColor=#dddddd;fontSize=16;whiteSpace=wrap;rounded=0;" parent="1" vertex="1">
                    <mxGeometry x="210" y="810" width="100" height="40" as="geometry"/>
                </mxCell>
                <mxCell id="3d76a8aef4d5c911-53" value="Delete Template" style="html=1;shadow=0;dashed=0;shape=mxgraph.bootstrap.rrect;align=center;rSize=5;strokeColor=none;fillColor=#DB524C;fontColor=#ffffff;fontSize=16;whiteSpace=wrap;rounded=0;" parent="1" vertex="1">
                    <mxGeometry x="670" y="810" width="170" height="40" as="geometry"/>
                </mxCell>
                <mxCell id="3d76a8aef4d5c911-54" value="" style="html=1;shadow=0;dashed=0;shape=mxgraph.bootstrap.rrect;rSize=5;strokeColor=#dddddd;rounded=0;fontSize=12;align=center;" parent="1" vertex="1">
                    <mxGeometry x="860" y="580" width="330" height="400" as="geometry"/>
                </mxCell>
                <mxCell id="3d76a8aef4d5c911-55" value="320x200" style="shape=rect;fontSize=24;fillColor=#f0f0f0;strokeColor=none;fontColor=#999999;whiteSpace=wrap;" parent="3d76a8aef4d5c911-54" vertex="1">
                    <mxGeometry x="5" y="5" width="320" height="200" as="geometry"/>
                </mxCell>
                <mxCell id="3d76a8aef4d5c911-56" value="Thumbnail label" style="html=1;shadow=0;dashed=0;shape=mxgraph.bootstrap.anchor;fontSize=26;align=left;whiteSpace=wrap;" parent="3d76a8aef4d5c911-54" vertex="1">
                    <mxGeometry x="15" y="220" width="300" height="40" as="geometry"/>
                </mxCell>
                <mxCell id="3d76a8aef4d5c911-57" value="Cras justo odio, dapibus ac facilisis in, egestas eget quam. Donec id elit non mi porta gravida at eget metus. Nullam id dolor id nibh ultricies vehicula ut id elit." style="html=1;shadow=0;dashed=0;shape=mxgraph.bootstrap.anchor;strokeColor=#dddddd;whiteSpace=wrap;align=left;verticalAlign=top;fontSize=14;whiteSpace=wrap;" parent="3d76a8aef4d5c911-54" vertex="1">
                    <mxGeometry x="15" y="260" width="300" height="80" as="geometry"/>
                </mxCell>
                <mxCell id="3d76a8aef4d5c911-58" value="Button" style="html=1;shadow=0;dashed=0;shape=mxgraph.bootstrap.rrect;rSize=5;fontSize=16;fillColor=#3D8BCD;strokeColor=none;fontColor=#ffffff;whiteSpace=wrap;" parent="3d76a8aef4d5c911-54" vertex="1">
                    <mxGeometry y="1" width="80" height="40" relative="1" as="geometry">
                        <mxPoint x="15" y="-60" as="offset"/>
                    </mxGeometry>
                </mxCell>
                <mxCell id="3d76a8aef4d5c911-59" value="Button" style="html=1;shadow=0;dashed=0;shape=mxgraph.bootstrap.rrect;rSize=5;fontSize=16;strokeColor=#dddddd;whiteSpace=wrap;" parent="3d76a8aef4d5c911-54" vertex="1">
                    <mxGeometry y="1" width="80" height="40" relative="1" as="geometry">
                        <mxPoint x="100" y="-60" as="offset"/>
                    </mxGeometry>
                </mxCell>
                <mxCell id="XdTm76C0t2Q1DLyjEuXM-2" value="&lt;font style=&quot;font-size: 12px;&quot;&gt;PP Python Activity Tracker&lt;/font&gt;" style="html=1;shadow=0;dashed=0;shape=mxgraph.bootstrap.rrect;rSize=5;strokeColor=none;strokeWidth=1;fillColor=#0085FC;fontColor=#FFFFFF;whiteSpace=wrap;align=left;verticalAlign=middle;spacingLeft=0;fontStyle=0;fontSize=16;spacing=5;" parent="1" vertex="1">
                    <mxGeometry x="30" width="340" height="30" as="geometry"/>
                </mxCell>
                <mxCell id="XdTm76C0t2Q1DLyjEuXM-3" value="" style="rounded=0;whiteSpace=wrap;html=1;strokeColor=none;fillColor=#E6E6E6;" parent="1" vertex="1">
                    <mxGeometry x="30" y="26" width="340" height="194" as="geometry"/>
                </mxCell>
                <mxCell id="3d76a8aef4d5c911-17" value="&lt;p&gt;&lt;font style=&quot;color: rgb(0, 0, 0);&quot;&gt;File Path:&lt;/font&gt;&lt;/p&gt;" style="html=1;shadow=0;dashed=0;shape=mxgraph.bootstrap.rect;strokeColor=none;fillColor=none;fontColor=#999999;align=left;spacingLeft=5;whiteSpace=wrap;rounded=0;" parent="1" vertex="1">
                    <mxGeometry x="40" y="30" width="60" height="20" as="geometry"/>
                </mxCell>
                <mxCell id="XdTm76C0t2Q1DLyjEuXM-5" value="" style="rounded=0;whiteSpace=wrap;html=1;strokeColor=#999999;strokeWidth=1;" parent="1" vertex="1">
                    <mxGeometry x="100" y="30" width="120" height="20" as="geometry"/>
                </mxCell>
                <mxCell id="XdTm76C0t2Q1DLyjEuXM-6" value="&lt;font style=&quot;font-size: 12px;&quot;&gt;Quit&lt;/font&gt;" style="html=1;shadow=0;dashed=0;shape=mxgraph.bootstrap.rrect;rSize=5;strokeColor=none;strokeWidth=1;fillColor=#0085FC;fontColor=#FFFFFF;whiteSpace=wrap;align=center;verticalAlign=middle;spacingLeft=0;fontStyle=0;fontSize=16;spacing=0;" parent="1" vertex="1">
                    <mxGeometry x="300" y="30" width="60" height="20" as="geometry"/>
                </mxCell>
                <mxCell id="XdTm76C0t2Q1DLyjEuXM-56" value="" style="shape=table;startSize=0;container=1;collapsible=0;childLayout=tableLayout;" parent="1" vertex="1">
                    <mxGeometry x="40" y="60" width="320" height="160" as="geometry"/>
                </mxCell>
                <mxCell id="XdTm76C0t2Q1DLyjEuXM-57" value="" style="shape=tableRow;horizontal=0;startSize=0;swimlaneHead=0;swimlaneBody=0;strokeColor=inherit;top=0;left=0;bottom=0;right=0;collapsible=0;dropTarget=0;fillColor=none;points=[[0,0.5],[1,0.5]];portConstraint=eastwest;" parent="XdTm76C0t2Q1DLyjEuXM-56" vertex="1">
                    <mxGeometry width="320" height="23" as="geometry"/>
                </mxCell>
                <mxCell id="XdTm76C0t2Q1DLyjEuXM-58" value="&lt;font style=&quot;font-size: 10px;&quot;&gt;Start&lt;/font&gt;" style="shape=partialRectangle;html=1;whiteSpace=wrap;connectable=0;strokeColor=inherit;overflow=hidden;fillColor=none;top=0;left=0;bottom=0;right=0;pointerEvents=1;" parent="XdTm76C0t2Q1DLyjEuXM-57" vertex="1">
                    <mxGeometry width="64" height="23" as="geometry">
                        <mxRectangle width="64" height="23" as="alternateBounds"/>
                    </mxGeometry>
                </mxCell>
                <mxCell id="XdTm76C0t2Q1DLyjEuXM-59" value="&lt;font style=&quot;font-size: 10px;&quot;&gt;Stop&lt;/font&gt;" style="shape=partialRectangle;html=1;whiteSpace=wrap;connectable=0;strokeColor=inherit;overflow=hidden;fillColor=none;top=0;left=0;bottom=0;right=0;pointerEvents=1;" parent="XdTm76C0t2Q1DLyjEuXM-57" vertex="1">
                    <mxGeometry x="64" width="64" height="23" as="geometry">
                        <mxRectangle width="64" height="23" as="alternateBounds"/>
                    </mxGeometry>
                </mxCell>
                <mxCell id="XdTm76C0t2Q1DLyjEuXM-60" value="&lt;font style=&quot;font-size: 10px;&quot;&gt;Duration&lt;/font&gt;" style="shape=partialRectangle;html=1;whiteSpace=wrap;connectable=0;strokeColor=inherit;overflow=hidden;fillColor=none;top=0;left=0;bottom=0;right=0;pointerEvents=1;" parent="XdTm76C0t2Q1DLyjEuXM-57" vertex="1">
                    <mxGeometry x="128" width="64" height="23" as="geometry">
                        <mxRectangle width="64" height="23" as="alternateBounds"/>
                    </mxGeometry>
                </mxCell>
                <mxCell id="XdTm76C0t2Q1DLyjEuXM-61" value="&lt;font style=&quot;font-size: 10px;&quot;&gt;Project&lt;/font&gt;" style="shape=partialRectangle;html=1;whiteSpace=wrap;connectable=0;strokeColor=inherit;overflow=hidden;fillColor=none;top=0;left=0;bottom=0;right=0;pointerEvents=1;" parent="XdTm76C0t2Q1DLyjEuXM-57" vertex="1">
                    <mxGeometry x="192" width="64" height="23" as="geometry">
                        <mxRectangle width="64" height="23" as="alternateBounds"/>
                    </mxGeometry>
                </mxCell>
                <mxCell id="XdTm76C0t2Q1DLyjEuXM-93" value="&lt;font style=&quot;font-size: 10px;&quot;&gt;Description&lt;/font&gt;" style="shape=partialRectangle;html=1;whiteSpace=wrap;connectable=0;strokeColor=inherit;overflow=hidden;fillColor=none;top=0;left=0;bottom=0;right=0;pointerEvents=1;" parent="XdTm76C0t2Q1DLyjEuXM-57" vertex="1">
                    <mxGeometry x="256" width="64" height="23" as="geometry">
                        <mxRectangle width="64" height="23" as="alternateBounds"/>
                    </mxGeometry>
                </mxCell>
                <mxCell id="XdTm76C0t2Q1DLyjEuXM-62" value="" style="shape=tableRow;horizontal=0;startSize=0;swimlaneHead=0;swimlaneBody=0;strokeColor=inherit;top=0;left=0;bottom=0;right=0;collapsible=0;dropTarget=0;fillColor=none;points=[[0,0.5],[1,0.5]];portConstraint=eastwest;" parent="XdTm76C0t2Q1DLyjEuXM-56" vertex="1">
                    <mxGeometry y="23" width="320" height="22" as="geometry"/>
                </mxCell>
                <mxCell id="XdTm76C0t2Q1DLyjEuXM-63" value="" style="shape=partialRectangle;html=1;whiteSpace=wrap;connectable=0;strokeColor=inherit;overflow=hidden;fillColor=none;top=0;left=0;bottom=0;right=0;pointerEvents=1;" parent="XdTm76C0t2Q1DLyjEuXM-62" vertex="1">
                    <mxGeometry width="64" height="22" as="geometry">
                        <mxRectangle width="64" height="22" as="alternateBounds"/>
                    </mxGeometry>
                </mxCell>
                <mxCell id="XdTm76C0t2Q1DLyjEuXM-64" value="" style="shape=partialRectangle;html=1;whiteSpace=wrap;connectable=0;strokeColor=inherit;overflow=hidden;fillColor=none;top=0;left=0;bottom=0;right=0;pointerEvents=1;" parent="XdTm76C0t2Q1DLyjEuXM-62" vertex="1">
                    <mxGeometry x="64" width="64" height="22" as="geometry">
                        <mxRectangle width="64" height="22" as="alternateBounds"/>
                    </mxGeometry>
                </mxCell>
                <mxCell id="XdTm76C0t2Q1DLyjEuXM-65" value="" style="shape=partialRectangle;html=1;whiteSpace=wrap;connectable=0;strokeColor=inherit;overflow=hidden;fillColor=none;top=0;left=0;bottom=0;right=0;pointerEvents=1;" parent="XdTm76C0t2Q1DLyjEuXM-62" vertex="1">
                    <mxGeometry x="128" width="64" height="22" as="geometry">
                        <mxRectangle width="64" height="22" as="alternateBounds"/>
                    </mxGeometry>
                </mxCell>
                <mxCell id="XdTm76C0t2Q1DLyjEuXM-66" value="" style="shape=partialRectangle;html=1;whiteSpace=wrap;connectable=0;strokeColor=inherit;overflow=hidden;fillColor=none;top=0;left=0;bottom=0;right=0;pointerEvents=1;" parent="XdTm76C0t2Q1DLyjEuXM-62" vertex="1">
                    <mxGeometry x="192" width="64" height="22" as="geometry">
                        <mxRectangle width="64" height="22" as="alternateBounds"/>
                    </mxGeometry>
                </mxCell>
                <mxCell id="XdTm76C0t2Q1DLyjEuXM-94" style="shape=partialRectangle;html=1;whiteSpace=wrap;connectable=0;strokeColor=inherit;overflow=hidden;fillColor=none;top=0;left=0;bottom=0;right=0;pointerEvents=1;" parent="XdTm76C0t2Q1DLyjEuXM-62" vertex="1">
                    <mxGeometry x="256" width="64" height="22" as="geometry">
                        <mxRectangle width="64" height="22" as="alternateBounds"/>
                    </mxGeometry>
                </mxCell>
                <mxCell id="XdTm76C0t2Q1DLyjEuXM-67" value="" style="shape=tableRow;horizontal=0;startSize=0;swimlaneHead=0;swimlaneBody=0;strokeColor=inherit;top=0;left=0;bottom=0;right=0;collapsible=0;dropTarget=0;fillColor=none;points=[[0,0.5],[1,0.5]];portConstraint=eastwest;" parent="XdTm76C0t2Q1DLyjEuXM-56" vertex="1">
                    <mxGeometry y="45" width="320" height="23" as="geometry"/>
                </mxCell>
                <mxCell id="XdTm76C0t2Q1DLyjEuXM-68" value="" style="shape=partialRectangle;html=1;whiteSpace=wrap;connectable=0;strokeColor=inherit;overflow=hidden;fillColor=none;top=0;left=0;bottom=0;right=0;pointerEvents=1;" parent="XdTm76C0t2Q1DLyjEuXM-67" vertex="1">
                    <mxGeometry width="64" height="23" as="geometry">
                        <mxRectangle width="64" height="23" as="alternateBounds"/>
                    </mxGeometry>
                </mxCell>
                <mxCell id="XdTm76C0t2Q1DLyjEuXM-69" value="" style="shape=partialRectangle;html=1;whiteSpace=wrap;connectable=0;strokeColor=inherit;overflow=hidden;fillColor=none;top=0;left=0;bottom=0;right=0;pointerEvents=1;" parent="XdTm76C0t2Q1DLyjEuXM-67" vertex="1">
                    <mxGeometry x="64" width="64" height="23" as="geometry">
                        <mxRectangle width="64" height="23" as="alternateBounds"/>
                    </mxGeometry>
                </mxCell>
                <mxCell id="XdTm76C0t2Q1DLyjEuXM-70" value="" style="shape=partialRectangle;html=1;whiteSpace=wrap;connectable=0;strokeColor=inherit;overflow=hidden;fillColor=none;top=0;left=0;bottom=0;right=0;pointerEvents=1;" parent="XdTm76C0t2Q1DLyjEuXM-67" vertex="1">
                    <mxGeometry x="128" width="64" height="23" as="geometry">
                        <mxRectangle width="64" height="23" as="alternateBounds"/>
                    </mxGeometry>
                </mxCell>
                <mxCell id="XdTm76C0t2Q1DLyjEuXM-71" value="" style="shape=partialRectangle;html=1;whiteSpace=wrap;connectable=0;strokeColor=inherit;overflow=hidden;fillColor=none;top=0;left=0;bottom=0;right=0;pointerEvents=1;" parent="XdTm76C0t2Q1DLyjEuXM-67" vertex="1">
                    <mxGeometry x="192" width="64" height="23" as="geometry">
                        <mxRectangle width="64" height="23" as="alternateBounds"/>
                    </mxGeometry>
                </mxCell>
                <mxCell id="XdTm76C0t2Q1DLyjEuXM-95" style="shape=partialRectangle;html=1;whiteSpace=wrap;connectable=0;strokeColor=inherit;overflow=hidden;fillColor=none;top=0;left=0;bottom=0;right=0;pointerEvents=1;" parent="XdTm76C0t2Q1DLyjEuXM-67" vertex="1">
                    <mxGeometry x="256" width="64" height="23" as="geometry">
                        <mxRectangle width="64" height="23" as="alternateBounds"/>
                    </mxGeometry>
                </mxCell>
                <mxCell id="XdTm76C0t2Q1DLyjEuXM-87" value="" style="shape=tableRow;horizontal=0;startSize=0;swimlaneHead=0;swimlaneBody=0;strokeColor=inherit;top=0;left=0;bottom=0;right=0;collapsible=0;dropTarget=0;fillColor=none;points=[[0,0.5],[1,0.5]];portConstraint=eastwest;" parent="XdTm76C0t2Q1DLyjEuXM-56" vertex="1">
                    <mxGeometry y="68" width="320" height="24" as="geometry"/>
                </mxCell>
                <mxCell id="XdTm76C0t2Q1DLyjEuXM-88" value="" style="shape=partialRectangle;html=1;whiteSpace=wrap;connectable=0;strokeColor=inherit;overflow=hidden;fillColor=none;top=0;left=0;bottom=0;right=0;pointerEvents=1;" parent="XdTm76C0t2Q1DLyjEuXM-87" vertex="1">
                    <mxGeometry width="64" height="24" as="geometry">
                        <mxRectangle width="64" height="24" as="alternateBounds"/>
                    </mxGeometry>
                </mxCell>
                <mxCell id="XdTm76C0t2Q1DLyjEuXM-89" value="" style="shape=partialRectangle;html=1;whiteSpace=wrap;connectable=0;strokeColor=inherit;overflow=hidden;fillColor=none;top=0;left=0;bottom=0;right=0;pointerEvents=1;" parent="XdTm76C0t2Q1DLyjEuXM-87" vertex="1">
                    <mxGeometry x="64" width="64" height="24" as="geometry">
                        <mxRectangle width="64" height="24" as="alternateBounds"/>
                    </mxGeometry>
                </mxCell>
                <mxCell id="XdTm76C0t2Q1DLyjEuXM-90" value="" style="shape=partialRectangle;html=1;whiteSpace=wrap;connectable=0;strokeColor=inherit;overflow=hidden;fillColor=none;top=0;left=0;bottom=0;right=0;pointerEvents=1;" parent="XdTm76C0t2Q1DLyjEuXM-87" vertex="1">
                    <mxGeometry x="128" width="64" height="24" as="geometry">
                        <mxRectangle width="64" height="24" as="alternateBounds"/>
                    </mxGeometry>
                </mxCell>
                <mxCell id="XdTm76C0t2Q1DLyjEuXM-91" value="" style="shape=partialRectangle;html=1;whiteSpace=wrap;connectable=0;strokeColor=inherit;overflow=hidden;fillColor=none;top=0;left=0;bottom=0;right=0;pointerEvents=1;" parent="XdTm76C0t2Q1DLyjEuXM-87" vertex="1">
                    <mxGeometry x="192" width="64" height="24" as="geometry">
                        <mxRectangle width="64" height="24" as="alternateBounds"/>
                    </mxGeometry>
                </mxCell>
                <mxCell id="XdTm76C0t2Q1DLyjEuXM-96" style="shape=partialRectangle;html=1;whiteSpace=wrap;connectable=0;strokeColor=inherit;overflow=hidden;fillColor=none;top=0;left=0;bottom=0;right=0;pointerEvents=1;" parent="XdTm76C0t2Q1DLyjEuXM-87" vertex="1">
                    <mxGeometry x="256" width="64" height="24" as="geometry">
                        <mxRectangle width="64" height="24" as="alternateBounds"/>
                    </mxGeometry>
                </mxCell>
                <mxCell id="XdTm76C0t2Q1DLyjEuXM-72" value="" style="shape=tableRow;horizontal=0;startSize=0;swimlaneHead=0;swimlaneBody=0;strokeColor=inherit;top=0;left=0;bottom=0;right=0;collapsible=0;dropTarget=0;fillColor=none;points=[[0,0.5],[1,0.5]];portConstraint=eastwest;" parent="XdTm76C0t2Q1DLyjEuXM-56" vertex="1">
                    <mxGeometry y="92" width="320" height="23" as="geometry"/>
                </mxCell>
                <mxCell id="XdTm76C0t2Q1DLyjEuXM-73" value="" style="shape=partialRectangle;html=1;whiteSpace=wrap;connectable=0;strokeColor=inherit;overflow=hidden;fillColor=none;top=0;left=0;bottom=0;right=0;pointerEvents=1;" parent="XdTm76C0t2Q1DLyjEuXM-72" vertex="1">
                    <mxGeometry width="64" height="23" as="geometry">
                        <mxRectangle width="64" height="23" as="alternateBounds"/>
                    </mxGeometry>
                </mxCell>
                <mxCell id="XdTm76C0t2Q1DLyjEuXM-74" value="" style="shape=partialRectangle;html=1;whiteSpace=wrap;connectable=0;strokeColor=inherit;overflow=hidden;fillColor=none;top=0;left=0;bottom=0;right=0;pointerEvents=1;" parent="XdTm76C0t2Q1DLyjEuXM-72" vertex="1">
                    <mxGeometry x="64" width="64" height="23" as="geometry">
                        <mxRectangle width="64" height="23" as="alternateBounds"/>
                    </mxGeometry>
                </mxCell>
                <mxCell id="XdTm76C0t2Q1DLyjEuXM-75" value="" style="shape=partialRectangle;html=1;whiteSpace=wrap;connectable=0;strokeColor=inherit;overflow=hidden;fillColor=none;top=0;left=0;bottom=0;right=0;pointerEvents=1;" parent="XdTm76C0t2Q1DLyjEuXM-72" vertex="1">
                    <mxGeometry x="128" width="64" height="23" as="geometry">
                        <mxRectangle width="64" height="23" as="alternateBounds"/>
                    </mxGeometry>
                </mxCell>
                <mxCell id="XdTm76C0t2Q1DLyjEuXM-76" value="" style="shape=partialRectangle;html=1;whiteSpace=wrap;connectable=0;strokeColor=inherit;overflow=hidden;fillColor=none;top=0;left=0;bottom=0;right=0;pointerEvents=1;" parent="XdTm76C0t2Q1DLyjEuXM-72" vertex="1">
                    <mxGeometry x="192" width="64" height="23" as="geometry">
                        <mxRectangle width="64" height="23" as="alternateBounds"/>
                    </mxGeometry>
                </mxCell>
                <mxCell id="XdTm76C0t2Q1DLyjEuXM-97" style="shape=partialRectangle;html=1;whiteSpace=wrap;connectable=0;strokeColor=inherit;overflow=hidden;fillColor=none;top=0;left=0;bottom=0;right=0;pointerEvents=1;" parent="XdTm76C0t2Q1DLyjEuXM-72" vertex="1">
                    <mxGeometry x="256" width="64" height="23" as="geometry">
                        <mxRectangle width="64" height="23" as="alternateBounds"/>
                    </mxGeometry>
                </mxCell>
                <mxCell id="XdTm76C0t2Q1DLyjEuXM-77" value="" style="shape=tableRow;horizontal=0;startSize=0;swimlaneHead=0;swimlaneBody=0;strokeColor=inherit;top=0;left=0;bottom=0;right=0;collapsible=0;dropTarget=0;fillColor=none;points=[[0,0.5],[1,0.5]];portConstraint=eastwest;" parent="XdTm76C0t2Q1DLyjEuXM-56" vertex="1">
                    <mxGeometry y="115" width="320" height="22" as="geometry"/>
                </mxCell>
                <mxCell id="XdTm76C0t2Q1DLyjEuXM-78" value="" style="shape=partialRectangle;html=1;whiteSpace=wrap;connectable=0;strokeColor=inherit;overflow=hidden;fillColor=none;top=0;left=0;bottom=0;right=0;pointerEvents=1;" parent="XdTm76C0t2Q1DLyjEuXM-77" vertex="1">
                    <mxGeometry width="64" height="22" as="geometry">
                        <mxRectangle width="64" height="22" as="alternateBounds"/>
                    </mxGeometry>
                </mxCell>
                <mxCell id="XdTm76C0t2Q1DLyjEuXM-79" value="" style="shape=partialRectangle;html=1;whiteSpace=wrap;connectable=0;strokeColor=inherit;overflow=hidden;fillColor=none;top=0;left=0;bottom=0;right=0;pointerEvents=1;" parent="XdTm76C0t2Q1DLyjEuXM-77" vertex="1">
                    <mxGeometry x="64" width="64" height="22" as="geometry">
                        <mxRectangle width="64" height="22" as="alternateBounds"/>
                    </mxGeometry>
                </mxCell>
                <mxCell id="XdTm76C0t2Q1DLyjEuXM-80" value="" style="shape=partialRectangle;html=1;whiteSpace=wrap;connectable=0;strokeColor=inherit;overflow=hidden;fillColor=none;top=0;left=0;bottom=0;right=0;pointerEvents=1;" parent="XdTm76C0t2Q1DLyjEuXM-77" vertex="1">
                    <mxGeometry x="128" width="64" height="22" as="geometry">
                        <mxRectangle width="64" height="22" as="alternateBounds"/>
                    </mxGeometry>
                </mxCell>
                <mxCell id="XdTm76C0t2Q1DLyjEuXM-81" value="" style="shape=partialRectangle;html=1;whiteSpace=wrap;connectable=0;strokeColor=inherit;overflow=hidden;fillColor=none;top=0;left=0;bottom=0;right=0;pointerEvents=1;" parent="XdTm76C0t2Q1DLyjEuXM-77" vertex="1">
                    <mxGeometry x="192" width="64" height="22" as="geometry">
                        <mxRectangle width="64" height="22" as="alternateBounds"/>
                    </mxGeometry>
                </mxCell>
                <mxCell id="XdTm76C0t2Q1DLyjEuXM-98" style="shape=partialRectangle;html=1;whiteSpace=wrap;connectable=0;strokeColor=inherit;overflow=hidden;fillColor=none;top=0;left=0;bottom=0;right=0;pointerEvents=1;" parent="XdTm76C0t2Q1DLyjEuXM-77" vertex="1">
                    <mxGeometry x="256" width="64" height="22" as="geometry">
                        <mxRectangle width="64" height="22" as="alternateBounds"/>
                    </mxGeometry>
                </mxCell>
                <mxCell id="XdTm76C0t2Q1DLyjEuXM-82" value="" style="shape=tableRow;horizontal=0;startSize=0;swimlaneHead=0;swimlaneBody=0;strokeColor=inherit;top=0;left=0;bottom=0;right=0;collapsible=0;dropTarget=0;fillColor=none;points=[[0,0.5],[1,0.5]];portConstraint=eastwest;" parent="XdTm76C0t2Q1DLyjEuXM-56" vertex="1">
                    <mxGeometry y="137" width="320" height="23" as="geometry"/>
                </mxCell>
                <mxCell id="XdTm76C0t2Q1DLyjEuXM-83" value="" style="shape=partialRectangle;html=1;whiteSpace=wrap;connectable=0;strokeColor=inherit;overflow=hidden;fillColor=none;top=0;left=0;bottom=0;right=0;pointerEvents=1;" parent="XdTm76C0t2Q1DLyjEuXM-82" vertex="1">
                    <mxGeometry width="64" height="23" as="geometry">
                        <mxRectangle width="64" height="23" as="alternateBounds"/>
                    </mxGeometry>
                </mxCell>
                <mxCell id="XdTm76C0t2Q1DLyjEuXM-84" value="" style="shape=partialRectangle;html=1;whiteSpace=wrap;connectable=0;strokeColor=inherit;overflow=hidden;fillColor=none;top=0;left=0;bottom=0;right=0;pointerEvents=1;" parent="XdTm76C0t2Q1DLyjEuXM-82" vertex="1">
                    <mxGeometry x="64" width="64" height="23" as="geometry">
                        <mxRectangle width="64" height="23" as="alternateBounds"/>
                    </mxGeometry>
                </mxCell>
                <mxCell id="XdTm76C0t2Q1DLyjEuXM-85" value="" style="shape=partialRectangle;html=1;whiteSpace=wrap;connectable=0;strokeColor=inherit;overflow=hidden;fillColor=none;top=0;left=0;bottom=0;right=0;pointerEvents=1;" parent="XdTm76C0t2Q1DLyjEuXM-82" vertex="1">
                    <mxGeometry x="128" width="64" height="23" as="geometry">
                        <mxRectangle width="64" height="23" as="alternateBounds"/>
                    </mxGeometry>
                </mxCell>
                <mxCell id="XdTm76C0t2Q1DLyjEuXM-86" value="" style="shape=partialRectangle;html=1;whiteSpace=wrap;connectable=0;strokeColor=inherit;overflow=hidden;fillColor=none;top=0;left=0;bottom=0;right=0;pointerEvents=1;" parent="XdTm76C0t2Q1DLyjEuXM-82" vertex="1">
                    <mxGeometry x="192" width="64" height="23" as="geometry">
                        <mxRectangle width="64" height="23" as="alternateBounds"/>
                    </mxGeometry>
                </mxCell>
                <mxCell id="XdTm76C0t2Q1DLyjEuXM-99" style="shape=partialRectangle;html=1;whiteSpace=wrap;connectable=0;strokeColor=inherit;overflow=hidden;fillColor=none;top=0;left=0;bottom=0;right=0;pointerEvents=1;" parent="XdTm76C0t2Q1DLyjEuXM-82" vertex="1">
                    <mxGeometry x="256" width="64" height="23" as="geometry">
                        <mxRectangle width="64" height="23" as="alternateBounds"/>
                    </mxGeometry>
                </mxCell>
                <mxCell id="2" value="&lt;p style=&quot;margin:0px;margin-top:4px;text-align:center;&quot;&gt;&lt;i&gt;&amp;lt;&amp;lt;Interface&amp;gt;&amp;gt;&lt;/i&gt;&lt;br&gt;&lt;b&gt;ATModel&lt;/b&gt;&lt;/p&gt;&lt;p style=&quot;margin:0px;margin-top:4px;text-align:center;&quot;&gt;&lt;i style=&quot;&quot;&gt;Activity Tracking Model Interface&lt;/i&gt;&lt;/p&gt;&lt;hr size=&quot;1&quot; style=&quot;border-style:solid;&quot;&gt;&lt;p style=&quot;margin:0px;margin-left:4px;&quot;&gt;+ activityname: str&lt;br&gt;+ activities: List[ActivityEntry]&lt;/p&gt;&lt;p style=&quot;margin:0px;margin-left:4px;&quot;&gt;+ created_date: datetime&lt;/p&gt;&lt;p style=&quot;margin:0px;margin-left:4px;&quot;&gt;+ last_modified_date: datetime&lt;/p&gt;&lt;p style=&quot;margin:0px;margin-left:4px;&quot;&gt;+ modified_by: str&lt;/p&gt;&lt;hr size=&quot;1&quot; style=&quot;border-style:solid;&quot;&gt;&lt;p style=&quot;margin:0px;margin-left:4px;&quot;&gt;+ ATModel(activityname: str) -&lt;sup&gt;&amp;nbsp;&lt;/sup&gt;&lt;span style=&quot;color: rgb(63, 63, 63); background-color: transparent;&quot;&gt;ATModel&lt;/span&gt;&lt;span style=&quot;background-color: transparent;&quot;&gt;:&amp;nbsp;&lt;/span&gt;&lt;/p&gt;&lt;p style=&quot;margin:0px;margin-left:4px;&quot;&gt;+ add_activity(ae: ActivityEntry) -&amp;gt; ActivityEntry:&lt;/p&gt;" style="verticalAlign=top;align=left;overflow=fill;html=1;whiteSpace=wrap;" parent="1" vertex="1">
                    <mxGeometry x="-510" y="217" width="280" height="190" as="geometry"/>
                </mxCell>
                <mxCell id="3" value="&lt;p style=&quot;margin:0px;margin-top:4px;text-align:center;&quot;&gt;&lt;i&gt;&amp;lt;&amp;lt;class&amp;gt;&amp;gt;&lt;/i&gt;&lt;br&gt;&lt;b&gt;FileATModel&lt;/b&gt;&lt;/p&gt;&lt;p style=&quot;margin:0px;margin-top:4px;text-align:center;&quot;&gt;&lt;i style=&quot;&quot;&gt;Activity Tracking Model&lt;/i&gt;&lt;/p&gt;&lt;hr size=&quot;1&quot; style=&quot;border-style:solid;&quot;&gt;&lt;p style=&quot;margin:0px;margin-left:4px;&quot;&gt;+ activityname: str&lt;br&gt;+ activities: List[ActivityEntry]&lt;/p&gt;&lt;p style=&quot;margin:0px;margin-left:4px;&quot;&gt;+ created_date: datetime&lt;/p&gt;&lt;p style=&quot;margin:0px;margin-left:4px;&quot;&gt;+ last_modified_date: datetime&lt;/p&gt;&lt;p style=&quot;margin:0px;margin-left:4px;&quot;&gt;+ modified_by: str&lt;/p&gt;&lt;hr size=&quot;1&quot; style=&quot;border-style:solid;&quot;&gt;&lt;p style=&quot;margin:0px;margin-left:4px;&quot;&gt;+ ATModel(activityname: str) -&lt;sup&gt;&amp;nbsp;&lt;/sup&gt;&lt;span style=&quot;color: rgb(63, 63, 63); background-color: transparent;&quot;&gt;ATModel&lt;/span&gt;&lt;span style=&quot;background-color: transparent;&quot;&gt;:&amp;nbsp;&lt;/span&gt;&lt;/p&gt;&lt;p style=&quot;margin:0px;margin-left:4px;&quot;&gt;+ add_activity(ae: ActivityEntry) -&amp;gt; ActivityEntry:&lt;/p&gt;" style="verticalAlign=top;align=left;overflow=fill;html=1;whiteSpace=wrap;" parent="1" vertex="1">
                    <mxGeometry x="-510" y="445" width="280" height="190" as="geometry"/>
                </mxCell>
                <mxCell id="4" value="" style="endArrow=block;html=1;rounded=0;align=center;verticalAlign=bottom;endFill=0;labelBackgroundColor=none;endSize=8;entryX=0.5;entryY=1;entryDx=0;entryDy=0;exitX=0.5;exitY=0;exitDx=0;exitDy=0;" parent="1" source="3" target="2" edge="1">
                    <mxGeometry relative="1" as="geometry">
                        <mxPoint x="-790" y="470" as="sourcePoint"/>
                        <mxPoint x="-630" y="470" as="targetPoint"/>
                    </mxGeometry>
                </mxCell>
                <mxCell id="5" value="" style="resizable=0;html=1;align=center;verticalAlign=top;labelBackgroundColor=none;" parent="4" connectable="0" vertex="1">
                    <mxGeometry relative="1" as="geometry"/>
                </mxCell>
            </root>
        </mxGraphModel>
    </diagram>
</mxfile>